<?xml version="1.0" encoding="utf-8" standalone="no"?>
<!DOCTYPE svg PUBLIC "-//W3C//DTD SVG 1.1//EN"
  "http://www.w3.org/Graphics/SVG/1.1/DTD/svg11.dtd">
<svg height="972pt" version="1.1" viewBox="0 0 1728 972" width="1728pt" xmlns="http://www.w3.org/2000/svg" xmlns:xlink="http://www.w3.org/1999/xlink">
 <metadata>
  <rdf:RDF xmlns:cc="http://creativecommons.org/ns#" xmlns:dc="http://purl.org/dc/elements/1.1/" xmlns:rdf="http://www.w3.org/1999/02/22-rdf-syntax-ns#">
   <cc:Work>
    <dc:type rdf:resource="http://purl.org/dc/dcmitype/StillImage"/>
    <dc:date>2021-08-18T11:11:09.808680</dc:date>
    <dc:format>image/svg+xml</dc:format>
    <dc:creator>
     <cc:Agent>
      <dc:title>Matplotlib v3.4.2, https://matplotlib.org/</dc:title>
     </cc:Agent>
    </dc:creator>
   </cc:Work>
  </rdf:RDF>
 </metadata>
 <defs>
  <style type="text/css">*{stroke-linecap:butt;stroke-linejoin:round;}</style>
 </defs>
 <g id="figure_1">
  <g id="patch_1">
   <path d="M 0 972 
L 1728 972 
L 1728 0 
L 0 0 
z
" style="fill:#ffffff;"/>
  </g>
  <g id="axes_1">
   <g id="patch_2">
    <path d="M 216 865.08 
L 1555.2 865.08 
L 1555.2 116.64 
L 216 116.64 
z
" style="fill:#ffffff;"/>
   </g>
   <g id="matplotlib.axis_1">
    <g id="xtick_1">
     <g id="line2d_1">
      <defs>
       <path d="M 0 0 
L 0 3.5 
" id="m42d17212cd" style="stroke:#000000;stroke-width:0.8;"/>
      </defs>
      <g>
       <use style="stroke:#000000;stroke-width:0.8;" x="252.026716" xlink:href="#m42d17212cd" y="865.08"/>
      </g>
     </g>
     <g id="text_1">
      <!-- 0 -->
      <g transform="translate(248.845466 879.678437)scale(0.1 -0.1)">
       <defs>
        <path d="M 2034 4250 
Q 1547 4250 1301 3770 
Q 1056 3291 1056 2328 
Q 1056 1369 1301 889 
Q 1547 409 2034 409 
Q 2525 409 2770 889 
Q 3016 1369 3016 2328 
Q 3016 3291 2770 3770 
Q 2525 4250 2034 4250 
z
M 2034 4750 
Q 2819 4750 3233 4129 
Q 3647 3509 3647 2328 
Q 3647 1150 3233 529 
Q 2819 -91 2034 -91 
Q 1250 -91 836 529 
Q 422 1150 422 2328 
Q 422 3509 836 4129 
Q 1250 4750 2034 4750 
z
" id="DejaVuSans-30" transform="scale(0.015625)"/>
       </defs>
       <use xlink:href="#DejaVuSans-30"/>
      </g>
     </g>
    </g>
    <g id="xtick_2">
     <g id="line2d_2">
      <g>
       <use style="stroke:#000000;stroke-width:0.8;" x="407.314286" xlink:href="#m42d17212cd" y="865.08"/>
      </g>
     </g>
     <g id="text_2">
      <!-- 500 -->
      <g transform="translate(397.770536 879.678437)scale(0.1 -0.1)">
       <defs>
        <path d="M 691 4666 
L 3169 4666 
L 3169 4134 
L 1269 4134 
L 1269 2991 
Q 1406 3038 1543 3061 
Q 1681 3084 1819 3084 
Q 2600 3084 3056 2656 
Q 3513 2228 3513 1497 
Q 3513 744 3044 326 
Q 2575 -91 1722 -91 
Q 1428 -91 1123 -41 
Q 819 9 494 109 
L 494 744 
Q 775 591 1075 516 
Q 1375 441 1709 441 
Q 2250 441 2565 725 
Q 2881 1009 2881 1497 
Q 2881 1984 2565 2268 
Q 2250 2553 1709 2553 
Q 1456 2553 1204 2497 
Q 953 2441 691 2322 
L 691 4666 
z
" id="DejaVuSans-35" transform="scale(0.015625)"/>
       </defs>
       <use xlink:href="#DejaVuSans-35"/>
       <use x="63.623047" xlink:href="#DejaVuSans-30"/>
       <use x="127.246094" xlink:href="#DejaVuSans-30"/>
      </g>
     </g>
    </g>
    <g id="xtick_3">
     <g id="line2d_3">
      <g>
       <use style="stroke:#000000;stroke-width:0.8;" x="562.601855" xlink:href="#m42d17212cd" y="865.08"/>
      </g>
     </g>
     <g id="text_3">
      <!-- 1000 -->
      <g transform="translate(549.876855 879.678437)scale(0.1 -0.1)">
       <defs>
        <path d="M 794 531 
L 1825 531 
L 1825 4091 
L 703 3866 
L 703 4441 
L 1819 4666 
L 2450 4666 
L 2450 531 
L 3481 531 
L 3481 0 
L 794 0 
L 794 531 
z
" id="DejaVuSans-31" transform="scale(0.015625)"/>
       </defs>
       <use xlink:href="#DejaVuSans-31"/>
       <use x="63.623047" xlink:href="#DejaVuSans-30"/>
       <use x="127.246094" xlink:href="#DejaVuSans-30"/>
       <use x="190.869141" xlink:href="#DejaVuSans-30"/>
      </g>
     </g>
    </g>
    <g id="xtick_4">
     <g id="line2d_4">
      <g>
       <use style="stroke:#000000;stroke-width:0.8;" x="717.889425" xlink:href="#m42d17212cd" y="865.08"/>
      </g>
     </g>
     <g id="text_4">
      <!-- 1500 -->
      <g transform="translate(705.164425 879.678437)scale(0.1 -0.1)">
       <use xlink:href="#DejaVuSans-31"/>
       <use x="63.623047" xlink:href="#DejaVuSans-35"/>
       <use x="127.246094" xlink:href="#DejaVuSans-30"/>
       <use x="190.869141" xlink:href="#DejaVuSans-30"/>
      </g>
     </g>
    </g>
    <g id="xtick_5">
     <g id="line2d_5">
      <g>
       <use style="stroke:#000000;stroke-width:0.8;" x="873.176994" xlink:href="#m42d17212cd" y="865.08"/>
      </g>
     </g>
     <g id="text_5">
      <!-- 2000 -->
      <g transform="translate(860.451994 879.678437)scale(0.1 -0.1)">
       <defs>
        <path d="M 1228 531 
L 3431 531 
L 3431 0 
L 469 0 
L 469 531 
Q 828 903 1448 1529 
Q 2069 2156 2228 2338 
Q 2531 2678 2651 2914 
Q 2772 3150 2772 3378 
Q 2772 3750 2511 3984 
Q 2250 4219 1831 4219 
Q 1534 4219 1204 4116 
Q 875 4013 500 3803 
L 500 4441 
Q 881 4594 1212 4672 
Q 1544 4750 1819 4750 
Q 2544 4750 2975 4387 
Q 3406 4025 3406 3419 
Q 3406 3131 3298 2873 
Q 3191 2616 2906 2266 
Q 2828 2175 2409 1742 
Q 1991 1309 1228 531 
z
" id="DejaVuSans-32" transform="scale(0.015625)"/>
       </defs>
       <use xlink:href="#DejaVuSans-32"/>
       <use x="63.623047" xlink:href="#DejaVuSans-30"/>
       <use x="127.246094" xlink:href="#DejaVuSans-30"/>
       <use x="190.869141" xlink:href="#DejaVuSans-30"/>
      </g>
     </g>
    </g>
    <g id="xtick_6">
     <g id="line2d_6">
      <g>
       <use style="stroke:#000000;stroke-width:0.8;" x="1028.464564" xlink:href="#m42d17212cd" y="865.08"/>
      </g>
     </g>
     <g id="text_6">
      <!-- 2500 -->
      <g transform="translate(1015.739564 879.678437)scale(0.1 -0.1)">
       <use xlink:href="#DejaVuSans-32"/>
       <use x="63.623047" xlink:href="#DejaVuSans-35"/>
       <use x="127.246094" xlink:href="#DejaVuSans-30"/>
       <use x="190.869141" xlink:href="#DejaVuSans-30"/>
      </g>
     </g>
    </g>
    <g id="xtick_7">
     <g id="line2d_7">
      <g>
       <use style="stroke:#000000;stroke-width:0.8;" x="1183.752134" xlink:href="#m42d17212cd" y="865.08"/>
      </g>
     </g>
     <g id="text_7">
      <!-- 3000 -->
      <g transform="translate(1171.027134 879.678437)scale(0.1 -0.1)">
       <defs>
        <path d="M 2597 2516 
Q 3050 2419 3304 2112 
Q 3559 1806 3559 1356 
Q 3559 666 3084 287 
Q 2609 -91 1734 -91 
Q 1441 -91 1130 -33 
Q 819 25 488 141 
L 488 750 
Q 750 597 1062 519 
Q 1375 441 1716 441 
Q 2309 441 2620 675 
Q 2931 909 2931 1356 
Q 2931 1769 2642 2001 
Q 2353 2234 1838 2234 
L 1294 2234 
L 1294 2753 
L 1863 2753 
Q 2328 2753 2575 2939 
Q 2822 3125 2822 3475 
Q 2822 3834 2567 4026 
Q 2313 4219 1838 4219 
Q 1578 4219 1281 4162 
Q 984 4106 628 3988 
L 628 4550 
Q 988 4650 1302 4700 
Q 1616 4750 1894 4750 
Q 2613 4750 3031 4423 
Q 3450 4097 3450 3541 
Q 3450 3153 3228 2886 
Q 3006 2619 2597 2516 
z
" id="DejaVuSans-33" transform="scale(0.015625)"/>
       </defs>
       <use xlink:href="#DejaVuSans-33"/>
       <use x="63.623047" xlink:href="#DejaVuSans-30"/>
       <use x="127.246094" xlink:href="#DejaVuSans-30"/>
       <use x="190.869141" xlink:href="#DejaVuSans-30"/>
      </g>
     </g>
    </g>
    <g id="xtick_8">
     <g id="line2d_8">
      <g>
       <use style="stroke:#000000;stroke-width:0.8;" x="1339.039703" xlink:href="#m42d17212cd" y="865.08"/>
      </g>
     </g>
     <g id="text_8">
      <!-- 3500 -->
      <g transform="translate(1326.314703 879.678437)scale(0.1 -0.1)">
       <use xlink:href="#DejaVuSans-33"/>
       <use x="63.623047" xlink:href="#DejaVuSans-35"/>
       <use x="127.246094" xlink:href="#DejaVuSans-30"/>
       <use x="190.869141" xlink:href="#DejaVuSans-30"/>
      </g>
     </g>
    </g>
    <g id="text_9">
     <!-- mnk -->
     <g transform="translate(874.665625 893.356562)scale(0.1 -0.1)">
      <defs>
       <path d="M 3328 2828 
Q 3544 3216 3844 3400 
Q 4144 3584 4550 3584 
Q 5097 3584 5394 3201 
Q 5691 2819 5691 2113 
L 5691 0 
L 5113 0 
L 5113 2094 
Q 5113 2597 4934 2840 
Q 4756 3084 4391 3084 
Q 3944 3084 3684 2787 
Q 3425 2491 3425 1978 
L 3425 0 
L 2847 0 
L 2847 2094 
Q 2847 2600 2669 2842 
Q 2491 3084 2119 3084 
Q 1678 3084 1418 2786 
Q 1159 2488 1159 1978 
L 1159 0 
L 581 0 
L 581 3500 
L 1159 3500 
L 1159 2956 
Q 1356 3278 1631 3431 
Q 1906 3584 2284 3584 
Q 2666 3584 2933 3390 
Q 3200 3197 3328 2828 
z
" id="DejaVuSans-6d" transform="scale(0.015625)"/>
       <path d="M 3513 2113 
L 3513 0 
L 2938 0 
L 2938 2094 
Q 2938 2591 2744 2837 
Q 2550 3084 2163 3084 
Q 1697 3084 1428 2787 
Q 1159 2491 1159 1978 
L 1159 0 
L 581 0 
L 581 3500 
L 1159 3500 
L 1159 2956 
Q 1366 3272 1645 3428 
Q 1925 3584 2291 3584 
Q 2894 3584 3203 3211 
Q 3513 2838 3513 2113 
z
" id="DejaVuSans-6e" transform="scale(0.015625)"/>
       <path d="M 581 4863 
L 1159 4863 
L 1159 1991 
L 2875 3500 
L 3609 3500 
L 1753 1863 
L 3688 0 
L 2938 0 
L 1159 1709 
L 1159 0 
L 581 0 
L 581 4863 
z
" id="DejaVuSans-6b" transform="scale(0.015625)"/>
      </defs>
      <use xlink:href="#DejaVuSans-6d"/>
      <use x="97.412109" xlink:href="#DejaVuSans-6e"/>
      <use x="160.791016" xlink:href="#DejaVuSans-6b"/>
     </g>
    </g>
   </g>
   <g id="matplotlib.axis_2">
    <g id="ytick_1">
     <g id="line2d_9">
      <defs>
       <path d="M 0 0 
L -3.5 0 
" id="m1160474711" style="stroke:#000000;stroke-width:0.8;"/>
      </defs>
      <g>
       <use style="stroke:#000000;stroke-width:0.8;" x="216" xlink:href="#m1160474711" y="865.08"/>
      </g>
     </g>
     <g id="text_10">
      <!-- 0 -->
      <g transform="translate(202.6375 868.879219)scale(0.1 -0.1)">
       <use xlink:href="#DejaVuSans-30"/>
      </g>
     </g>
    </g>
    <g id="ytick_2">
     <g id="line2d_10">
      <g>
       <use style="stroke:#000000;stroke-width:0.8;" x="216" xlink:href="#m1160474711" y="715.392"/>
      </g>
     </g>
     <g id="text_11">
      <!-- 100 -->
      <g transform="translate(189.9125 719.191219)scale(0.1 -0.1)">
       <use xlink:href="#DejaVuSans-31"/>
       <use x="63.623047" xlink:href="#DejaVuSans-30"/>
       <use x="127.246094" xlink:href="#DejaVuSans-30"/>
      </g>
     </g>
    </g>
    <g id="ytick_3">
     <g id="line2d_11">
      <g>
       <use style="stroke:#000000;stroke-width:0.8;" x="216" xlink:href="#m1160474711" y="565.704"/>
      </g>
     </g>
     <g id="text_12">
      <!-- 200 -->
      <g transform="translate(189.9125 569.503219)scale(0.1 -0.1)">
       <use xlink:href="#DejaVuSans-32"/>
       <use x="63.623047" xlink:href="#DejaVuSans-30"/>
       <use x="127.246094" xlink:href="#DejaVuSans-30"/>
      </g>
     </g>
    </g>
    <g id="ytick_4">
     <g id="line2d_12">
      <g>
       <use style="stroke:#000000;stroke-width:0.8;" x="216" xlink:href="#m1160474711" y="416.016"/>
      </g>
     </g>
     <g id="text_13">
      <!-- 300 -->
      <g transform="translate(189.9125 419.815219)scale(0.1 -0.1)">
       <use xlink:href="#DejaVuSans-33"/>
       <use x="63.623047" xlink:href="#DejaVuSans-30"/>
       <use x="127.246094" xlink:href="#DejaVuSans-30"/>
      </g>
     </g>
    </g>
    <g id="ytick_5">
     <g id="line2d_13">
      <g>
       <use style="stroke:#000000;stroke-width:0.8;" x="216" xlink:href="#m1160474711" y="266.328"/>
      </g>
     </g>
     <g id="text_14">
      <!-- 400 -->
      <g transform="translate(189.9125 270.127219)scale(0.1 -0.1)">
       <defs>
        <path d="M 2419 4116 
L 825 1625 
L 2419 1625 
L 2419 4116 
z
M 2253 4666 
L 3047 4666 
L 3047 1625 
L 3713 1625 
L 3713 1100 
L 3047 1100 
L 3047 0 
L 2419 0 
L 2419 1100 
L 313 1100 
L 313 1709 
L 2253 4666 
z
" id="DejaVuSans-34" transform="scale(0.015625)"/>
       </defs>
       <use xlink:href="#DejaVuSans-34"/>
       <use x="63.623047" xlink:href="#DejaVuSans-30"/>
       <use x="127.246094" xlink:href="#DejaVuSans-30"/>
      </g>
     </g>
    </g>
    <g id="ytick_6">
     <g id="line2d_14">
      <g>
       <use style="stroke:#000000;stroke-width:0.8;" x="216" xlink:href="#m1160474711" y="116.64"/>
      </g>
     </g>
     <g id="text_15">
      <!-- 500 -->
      <g transform="translate(189.9125 120.439219)scale(0.1 -0.1)">
       <use xlink:href="#DejaVuSans-35"/>
       <use x="63.623047" xlink:href="#DejaVuSans-30"/>
       <use x="127.246094" xlink:href="#DejaVuSans-30"/>
      </g>
     </g>
    </g>
    <g id="text_16">
     <!-- GFLOPS -->
     <g transform="translate(183.832812 510.339688)rotate(-90)scale(0.1 -0.1)">
      <defs>
       <path d="M 3809 666 
L 3809 1919 
L 2778 1919 
L 2778 2438 
L 4434 2438 
L 4434 434 
Q 4069 175 3628 42 
Q 3188 -91 2688 -91 
Q 1594 -91 976 548 
Q 359 1188 359 2328 
Q 359 3472 976 4111 
Q 1594 4750 2688 4750 
Q 3144 4750 3555 4637 
Q 3966 4525 4313 4306 
L 4313 3634 
Q 3963 3931 3569 4081 
Q 3175 4231 2741 4231 
Q 1884 4231 1454 3753 
Q 1025 3275 1025 2328 
Q 1025 1384 1454 906 
Q 1884 428 2741 428 
Q 3075 428 3337 486 
Q 3600 544 3809 666 
z
" id="DejaVuSans-47" transform="scale(0.015625)"/>
       <path d="M 628 4666 
L 3309 4666 
L 3309 4134 
L 1259 4134 
L 1259 2759 
L 3109 2759 
L 3109 2228 
L 1259 2228 
L 1259 0 
L 628 0 
L 628 4666 
z
" id="DejaVuSans-46" transform="scale(0.015625)"/>
       <path d="M 628 4666 
L 1259 4666 
L 1259 531 
L 3531 531 
L 3531 0 
L 628 0 
L 628 4666 
z
" id="DejaVuSans-4c" transform="scale(0.015625)"/>
       <path d="M 2522 4238 
Q 1834 4238 1429 3725 
Q 1025 3213 1025 2328 
Q 1025 1447 1429 934 
Q 1834 422 2522 422 
Q 3209 422 3611 934 
Q 4013 1447 4013 2328 
Q 4013 3213 3611 3725 
Q 3209 4238 2522 4238 
z
M 2522 4750 
Q 3503 4750 4090 4092 
Q 4678 3434 4678 2328 
Q 4678 1225 4090 567 
Q 3503 -91 2522 -91 
Q 1538 -91 948 565 
Q 359 1222 359 2328 
Q 359 3434 948 4092 
Q 1538 4750 2522 4750 
z
" id="DejaVuSans-4f" transform="scale(0.015625)"/>
       <path d="M 1259 4147 
L 1259 2394 
L 2053 2394 
Q 2494 2394 2734 2622 
Q 2975 2850 2975 3272 
Q 2975 3691 2734 3919 
Q 2494 4147 2053 4147 
L 1259 4147 
z
M 628 4666 
L 2053 4666 
Q 2838 4666 3239 4311 
Q 3641 3956 3641 3272 
Q 3641 2581 3239 2228 
Q 2838 1875 2053 1875 
L 1259 1875 
L 1259 0 
L 628 0 
L 628 4666 
z
" id="DejaVuSans-50" transform="scale(0.015625)"/>
       <path d="M 3425 4513 
L 3425 3897 
Q 3066 4069 2747 4153 
Q 2428 4238 2131 4238 
Q 1616 4238 1336 4038 
Q 1056 3838 1056 3469 
Q 1056 3159 1242 3001 
Q 1428 2844 1947 2747 
L 2328 2669 
Q 3034 2534 3370 2195 
Q 3706 1856 3706 1288 
Q 3706 609 3251 259 
Q 2797 -91 1919 -91 
Q 1588 -91 1214 -16 
Q 841 59 441 206 
L 441 856 
Q 825 641 1194 531 
Q 1563 422 1919 422 
Q 2459 422 2753 634 
Q 3047 847 3047 1241 
Q 3047 1584 2836 1778 
Q 2625 1972 2144 2069 
L 1759 2144 
Q 1053 2284 737 2584 
Q 422 2884 422 3419 
Q 422 4038 858 4394 
Q 1294 4750 2059 4750 
Q 2388 4750 2728 4690 
Q 3069 4631 3425 4513 
z
" id="DejaVuSans-53" transform="scale(0.015625)"/>
      </defs>
      <use xlink:href="#DejaVuSans-47"/>
      <use x="77.490234" xlink:href="#DejaVuSans-46"/>
      <use x="135.009766" xlink:href="#DejaVuSans-4c"/>
      <use x="187.097656" xlink:href="#DejaVuSans-4f"/>
      <use x="265.808594" xlink:href="#DejaVuSans-50"/>
      <use x="326.111328" xlink:href="#DejaVuSans-53"/>
     </g>
    </g>
   </g>
   <g id="line2d_15">
    <path clip-path="url(#pc1d2839cef)" d="M 276.872727 596.659478 
L 301.718738 476.070826 
L 326.56475 420.147389 
L 351.410761 383.294203 
L 376.256772 367.442244 
L 401.102783 350.108374 
L 425.948794 330.94831 
L 450.794805 324.362038 
L 475.640816 344.345386 
L 500.486827 325.619417 
L 525.332839 326.158294 
L 550.17885 312.955812 
L 575.024861 365.810645 
L 599.870872 357.188616 
L 624.716883 359.553686 
L 649.562894 349.449746 
L 674.408905 346.875113 
L 699.254917 340.213997 
L 724.100928 346.276361 
L 748.946939 335.169511 
L 773.79295 337.399862 
L 798.638961 330.394464 
L 823.484972 331.771594 
L 848.330983 327.32586 
L 873.176994 327.804862 
L 898.023006 341.186969 
L 922.869017 342.055159 
L 947.715028 333.852257 
L 972.561039 334.465978 
L 997.40705 328.867646 
L 1022.253061 330.843528 
L 1047.099072 324.122537 
L 1071.945083 326.442701 
L 1096.791095 324.152474 
L 1121.637106 326.143325 
L 1146.483117 320.21568 
L 1171.329128 322.95497 
L 1196.175139 319.72171 
L 1221.02115 337.80402 
L 1245.867161 333.148723 
L 1270.713173 335.214418 
L 1295.559184 330.648934 
L 1320.405195 331.517124 
L 1345.251206 325.993637 
L 1370.097217 329.795712 
L 1394.943228 325.739167 
L 1419.789239 328.19405 
L 1444.63525 321.637716 
L 1469.481262 322.940002 
L 1494.327273 320.634806 
" style="fill:none;stroke:#ff0029;stroke-linecap:square;stroke-width:1.5;"/>
   </g>
   <g id="line2d_16">
    <path clip-path="url(#pc1d2839cef)" d="M 276.872727 557.201722 
L 301.718738 425.760689 
L 326.56475 371.214382 
L 351.410761 340.887593 
L 376.256772 322.910064 
L 401.102783 298.436076 
L 425.948794 296.789508 
L 450.794805 333.418162 
L 475.640816 325.379916 
L 500.486827 317.326702 
L 525.332839 319.946242 
L 550.17885 309.004049 
L 575.024861 307.222762 
L 599.870872 299.319235 
L 624.716883 297.328385 
L 649.562894 292.762901 
L 674.408905 324.047693 
L 699.254917 318.239798 
L 724.100928 316.533355 
L 748.946939 310.141678 
L 773.79295 309.962052 
L 798.638961 306.983261 
L 823.484972 310.575773 
L 848.330983 306.728791 
L 873.176994 306.234821 
L 898.023006 302.836903 
L 922.869017 287.434008 
L 947.715028 282.643992 
L 972.561039 283.392432 
L 997.40705 280.024452 
L 1022.253061 279.006574 
L 1047.099072 277.150442 
L 1071.945083 293.945436 
L 1096.791095 290.173298 
L 1121.637106 285.398251 
L 1146.483117 272.510114 
L 1171.329128 271.222798 
L 1196.175139 270.594108 
L 1221.02115 270.249826 
L 1245.867161 269.995356 
L 1270.713173 269.127166 
L 1295.559184 267.256066 
L 1320.405195 267.435691 
L 1345.251206 266.597438 
L 1370.097217 265.938811 
L 1394.943228 265.235278 
L 1419.789239 264.546713 
L 1444.63525 263.034864 
L 1469.481262 272.300551 
L 1494.327273 270.968328 
" style="fill:none;stroke:#ff9900;stroke-linecap:square;stroke-width:1.5;"/>
   </g>
   <g id="line2d_17">
    <path clip-path="url(#pc1d2839cef)" d="M 276.872727 660.246941 
L 301.718738 564.416683 
L 326.56475 497.640866 
L 351.410761 454.156502 
L 376.256772 423.5004 
L 401.102783 406.046779 
L 425.948794 391.542012 
L 450.794805 376.737869 
L 475.640816 369.777377 
L 500.486827 351.799848 
L 525.332839 349.105464 
L 550.17885 337.414831 
L 575.024861 330.259745 
L 599.870872 327.041453 
L 624.716883 321.158714 
L 649.562894 317.012357 
L 674.408905 311.458932 
L 699.254917 308.225671 
L 724.100928 306.579103 
L 748.946939 351.410659 
L 773.79295 345.16867 
L 798.638961 342.908381 
L 823.484972 337.534582 
L 848.330983 331.651843 
L 873.176994 330.349558 
L 898.023006 325.963699 
L 922.869017 324.96079 
L 947.715028 322.326281 
L 972.561039 317.521296 
L 997.40705 316.278886 
L 1022.253061 314.138347 
L 1047.099072 311.60862 
L 1071.945083 310.964962 
L 1096.791095 308.315484 
L 1121.637106 306.204883 
L 1146.483117 303.974532 
L 1171.329128 302.62734 
L 1196.175139 300.935866 
L 1221.02115 324.646445 
L 1245.867161 320.33543 
L 1270.713173 318.209861 
L 1295.559184 316.174104 
L 1320.405195 314.392817 
L 1345.251206 311.503838 
L 1370.097217 310.620679 
L 1394.943228 308.405297 
L 1419.789239 308.794486 
L 1444.63525 307.028167 
L 1469.481262 305.680975 
L 1494.327273 302.74709 
" style="fill:none;stroke:#9dff00;stroke-linecap:square;stroke-width:1.5;"/>
   </g>
   <g id="line2d_18">
    <path clip-path="url(#pc1d2839cef)" d="M 276.872727 647.942587 
L 301.718738 544.523148 
L 326.56475 476.579765 
L 351.410761 434.996438 
L 376.256772 402.514142 
L 401.102783 380.450131 
L 425.948794 368.205653 
L 450.794805 362.38279 
L 475.640816 339.3009 
L 500.486827 337.744145 
L 525.332839 320.70965 
L 550.17885 314.796974 
L 575.024861 312.566623 
L 599.870872 296.490132 
L 624.716883 299.438986 
L 649.562894 290.173298 
L 674.408905 300.172457 
L 699.254917 284.949187 
L 724.100928 281.715926 
L 748.946939 278.482666 
L 773.79295 278.04857 
L 798.638961 274.650653 
L 823.484972 311.683464 
L 848.330983 307.103011 
L 873.176994 305.591162 
L 898.023006 301.923806 
L 922.869017 297.418198 
L 947.715028 294.080155 
L 972.561039 293.960405 
L 997.40705 291.924648 
L 1022.253061 292.014461 
L 1047.099072 287.898041 
L 1071.945083 289.305108 
L 1096.791095 284.964156 
L 1121.637106 283.347526 
L 1146.483117 283.018212 
L 1171.329128 280.997424 
L 1196.175139 280.024452 
L 1221.02115 279.335887 
L 1245.867161 276.596597 
L 1270.713173 273.992026 
L 1295.559184 273.513024 
L 1320.405195 273.108866 
L 1345.251206 270.145044 
L 1370.097217 290.517581 
L 1394.943228 289.005732 
L 1419.789239 287.957916 
L 1444.63525 286.011972 
L 1469.481262 285.218626 
L 1494.327273 283.108025 
" style="fill:none;stroke:#00ff26;stroke-linecap:square;stroke-width:1.5;"/>
   </g>
   <g id="line2d_19">
    <path clip-path="url(#pc1d2839cef)" d="M 276.872727 695.633184 
L 301.718738 597.467794 
L 326.56475 534.568896 
L 351.410761 487.162706 
L 376.256772 453.408062 
L 401.102783 425.655907 
L 425.948794 406.076717 
L 450.794805 395.957808 
L 475.640816 381.378197 
L 500.486827 363.011479 
L 525.332839 366.154927 
L 550.17885 344.79445 
L 575.024861 338.013583 
L 599.870872 329.855587 
L 624.716883 336.30714 
L 649.562894 319.72171 
L 674.408905 311.189494 
L 699.254917 309.572863 
L 724.100928 308.315484 
L 748.946939 299.603642 
L 773.79295 302.163307 
L 798.638961 306.145008 
L 823.484972 293.960405 
L 848.330983 283.302619 
L 873.176994 284.155841 
L 898.023006 328.82274 
L 922.869017 324.257256 
L 947.715028 321.517966 
L 972.561039 318.988238 
L 997.40705 315.769946 
L 1022.253061 312.446873 
L 1047.099072 309.348331 
L 1071.945083 310.830242 
L 1096.791095 310.500929 
L 1121.637106 306.788666 
L 1146.483117 303.600312 
L 1171.329128 303.016529 
L 1196.175139 299.783268 
L 1221.02115 297.972043 
L 1245.867161 296.609882 
L 1270.713173 297.283478 
L 1295.559184 294.469344 
L 1320.405195 290.876832 
L 1345.251206 289.769141 
L 1370.097217 289.843985 
L 1394.943228 286.895131 
L 1419.789239 287.104694 
L 1444.63525 286.401161 
L 1469.481262 284.769562 
L 1494.327273 280.623204 
" style="fill:none;stroke:#00ffed;stroke-linecap:square;stroke-width:1.5;"/>
   </g>
   <g id="line2d_20">
    <path clip-path="url(#pc1d2839cef)" d="M 276.872727 649.259842 
L 301.718738 550.046635 
L 326.56475 485.890358 
L 351.410761 440.998927 
L 376.256772 404.53493 
L 401.102783 380.899195 
L 425.948794 368.834342 
L 450.794805 366.319584 
L 475.640816 339.944558 
L 500.486827 341.112125 
L 525.332839 319.527115 
L 550.17885 314.377848 
L 575.024861 316.159135 
L 599.870872 297.88223 
L 624.716883 297.148759 
L 649.562894 290.02361 
L 674.408905 296.041068 
L 699.254917 279.4257 
L 724.100928 276.985786 
L 748.946939 275.42903 
L 773.79295 274.695559 
L 798.638961 273.093898 
L 823.484972 278.916761 
L 848.330983 276.596597 
L 873.176994 265.010746 
L 898.023006 259.307633 
L 922.869017 260.879357 
L 947.715028 259.741728 
L 972.561039 298.989922 
L 997.40705 296.490132 
L 1022.253061 295.756661 
L 1047.099072 291.909679 
L 1071.945083 291.116333 
L 1096.791095 287.16457 
L 1121.637106 286.505942 
L 1146.483117 284.305529 
L 1171.329128 286.969975 
L 1196.175139 280.623204 
L 1221.02115 283.063118 
L 1245.867161 277.5546 
L 1270.713173 277.509694 
L 1295.559184 277.524662 
L 1320.405195 274.366246 
L 1345.251206 273.947119 
L 1370.097217 272.929241 
L 1394.943228 272.779553 
L 1419.789239 268.678102 
L 1444.63525 267.241097 
L 1469.481262 266.567501 
L 1494.327273 265.83403 
" style="fill:none;stroke:#004eff;stroke-linecap:square;stroke-width:1.5;"/>
   </g>
   <g id="line2d_21">
    <path clip-path="url(#pc1d2839cef)" d="M 276.872727 646.236144 
L 301.718738 542.50236 
L 326.56475 481.309906 
L 351.410761 441.867118 
L 376.256772 406.271311 
L 401.102783 379.956161 
L 425.948794 369.942034 
L 450.794805 371.902946 
L 475.640816 345.063888 
L 500.486827 345.153701 
L 525.332839 324.601538 
L 550.17885 321.278465 
L 575.024861 324.07763 
L 599.870872 305.291786 
L 624.716883 298.376201 
L 649.562894 292.628182 
L 674.408905 301.75915 
L 699.254917 284.634842 
L 724.100928 281.805739 
L 748.946939 278.647322 
L 773.79295 278.063539 
L 798.638961 270.18995 
L 823.484972 272.914272 
L 848.330983 275.698469 
L 873.176994 265.280184 
L 898.023006 258.364598 
L 922.869017 260.490168 
L 947.715028 258.199942 
L 972.561039 258.46938 
L 997.40705 264.20243 
L 1022.253061 271.357517 
L 1047.099072 284.604905 
L 1071.945083 315.560383 
L 1096.791095 311.758308 
L 1121.637106 310.426085 
L 1146.483117 306.86351 
L 1171.329128 305.845632 
L 1196.175139 302.283058 
L 1221.02115 303.166217 
L 1245.867161 303.166217 
L 1270.713173 298.466014 
L 1295.559184 298.361232 
L 1320.405195 293.541278 
L 1345.251206 291.595334 
L 1370.097217 292.792838 
L 1394.943228 286.955006 
L 1419.789239 287.65854 
L 1444.63525 283.781621 
L 1469.481262 283.79659 
L 1494.327273 278.93173 
" style="fill:none;stroke:#7b00ff;stroke-linecap:square;stroke-width:1.5;"/>
   </g>
   <g id="line2d_22">
    <path clip-path="url(#pc1d2839cef)" d="M 276.872727 658.13634 
L 301.718738 550.795075 
L 326.56475 484.453354 
L 351.410761 440.849239 
L 376.256772 405.268402 
L 401.102783 378.983189 
L 425.948794 368.220622 
L 450.794805 367.008149 
L 475.640816 341.112125 
L 500.486827 340.288841 
L 525.332839 318.733769 
L 550.17885 313.704252 
L 575.024861 315.23107 
L 599.870872 296.460194 
L 624.716883 299.334204 
L 649.562894 291.28099 
L 674.408905 298.01695 
L 699.254917 278.108446 
L 724.100928 275.698469 
L 748.946939 272.674771 
L 773.79295 271.088078 
L 798.638961 270.219888 
L 823.484972 273.423211 
L 848.330983 278.617385 
L 873.176994 267.106378 
L 898.023006 268.438601 
L 922.869017 271.013234 
L 947.715028 270.010325 
L 972.561039 279.111355 
L 997.40705 287.044819 
L 1022.253061 302.432746 
L 1047.099072 312.461842 
L 1071.945083 340.064309 
L 1096.791095 360.107532 
L 1121.637106 366.73871 
L 1146.483117 384.95574 
L 1171.329128 382.291294 
L 1196.175139 377.366558 
L 1221.02115 377.875498 
L 1245.867161 370.780286 
L 1270.713173 330.663902 
L 1295.559184 368.460122 
L 1320.405195 367.846402 
L 1345.251206 360.900878 
L 1370.097217 362.99651 
L 1394.943228 355.661798 
L 1419.789239 355.751611 
L 1444.63525 351.380722 
L 1469.481262 346.231454 
L 1494.327273 344.360354 
" style="fill:none;stroke:#ff00bf;stroke-linecap:square;stroke-width:1.5;"/>
   </g>
   <g id="patch_3">
    <path d="M 216 865.08 
L 216 116.64 
" style="fill:none;stroke:#000000;stroke-linecap:square;stroke-linejoin:miter;stroke-width:0.8;"/>
   </g>
   <g id="patch_4">
    <path d="M 1555.2 865.08 
L 1555.2 116.64 
" style="fill:none;stroke:#000000;stroke-linecap:square;stroke-linejoin:miter;stroke-width:0.8;"/>
   </g>
   <g id="patch_5">
    <path d="M 216 865.08 
L 1555.2 865.08 
" style="fill:none;stroke:#000000;stroke-linecap:square;stroke-linejoin:miter;stroke-width:0.8;"/>
   </g>
   <g id="patch_6">
    <path d="M 216 116.64 
L 1555.2 116.64 
" style="fill:none;stroke:#000000;stroke-linecap:square;stroke-linejoin:miter;stroke-width:0.8;"/>
   </g>
   <g id="text_17">
    <!-- /packA6packB2/ -->
    <g transform="translate(837.182813 110.64)scale(0.12 -0.12)">
     <defs>
      <path d="M 1625 4666 
L 2156 4666 
L 531 -594 
L 0 -594 
L 1625 4666 
z
" id="DejaVuSans-2f" transform="scale(0.015625)"/>
      <path d="M 1159 525 
L 1159 -1331 
L 581 -1331 
L 581 3500 
L 1159 3500 
L 1159 2969 
Q 1341 3281 1617 3432 
Q 1894 3584 2278 3584 
Q 2916 3584 3314 3078 
Q 3713 2572 3713 1747 
Q 3713 922 3314 415 
Q 2916 -91 2278 -91 
Q 1894 -91 1617 61 
Q 1341 213 1159 525 
z
M 3116 1747 
Q 3116 2381 2855 2742 
Q 2594 3103 2138 3103 
Q 1681 3103 1420 2742 
Q 1159 2381 1159 1747 
Q 1159 1113 1420 752 
Q 1681 391 2138 391 
Q 2594 391 2855 752 
Q 3116 1113 3116 1747 
z
" id="DejaVuSans-70" transform="scale(0.015625)"/>
      <path d="M 2194 1759 
Q 1497 1759 1228 1600 
Q 959 1441 959 1056 
Q 959 750 1161 570 
Q 1363 391 1709 391 
Q 2188 391 2477 730 
Q 2766 1069 2766 1631 
L 2766 1759 
L 2194 1759 
z
M 3341 1997 
L 3341 0 
L 2766 0 
L 2766 531 
Q 2569 213 2275 61 
Q 1981 -91 1556 -91 
Q 1019 -91 701 211 
Q 384 513 384 1019 
Q 384 1609 779 1909 
Q 1175 2209 1959 2209 
L 2766 2209 
L 2766 2266 
Q 2766 2663 2505 2880 
Q 2244 3097 1772 3097 
Q 1472 3097 1187 3025 
Q 903 2953 641 2809 
L 641 3341 
Q 956 3463 1253 3523 
Q 1550 3584 1831 3584 
Q 2591 3584 2966 3190 
Q 3341 2797 3341 1997 
z
" id="DejaVuSans-61" transform="scale(0.015625)"/>
      <path d="M 3122 3366 
L 3122 2828 
Q 2878 2963 2633 3030 
Q 2388 3097 2138 3097 
Q 1578 3097 1268 2742 
Q 959 2388 959 1747 
Q 959 1106 1268 751 
Q 1578 397 2138 397 
Q 2388 397 2633 464 
Q 2878 531 3122 666 
L 3122 134 
Q 2881 22 2623 -34 
Q 2366 -91 2075 -91 
Q 1284 -91 818 406 
Q 353 903 353 1747 
Q 353 2603 823 3093 
Q 1294 3584 2113 3584 
Q 2378 3584 2631 3529 
Q 2884 3475 3122 3366 
z
" id="DejaVuSans-63" transform="scale(0.015625)"/>
      <path d="M 2188 4044 
L 1331 1722 
L 3047 1722 
L 2188 4044 
z
M 1831 4666 
L 2547 4666 
L 4325 0 
L 3669 0 
L 3244 1197 
L 1141 1197 
L 716 0 
L 50 0 
L 1831 4666 
z
" id="DejaVuSans-41" transform="scale(0.015625)"/>
      <path d="M 2113 2584 
Q 1688 2584 1439 2293 
Q 1191 2003 1191 1497 
Q 1191 994 1439 701 
Q 1688 409 2113 409 
Q 2538 409 2786 701 
Q 3034 994 3034 1497 
Q 3034 2003 2786 2293 
Q 2538 2584 2113 2584 
z
M 3366 4563 
L 3366 3988 
Q 3128 4100 2886 4159 
Q 2644 4219 2406 4219 
Q 1781 4219 1451 3797 
Q 1122 3375 1075 2522 
Q 1259 2794 1537 2939 
Q 1816 3084 2150 3084 
Q 2853 3084 3261 2657 
Q 3669 2231 3669 1497 
Q 3669 778 3244 343 
Q 2819 -91 2113 -91 
Q 1303 -91 875 529 
Q 447 1150 447 2328 
Q 447 3434 972 4092 
Q 1497 4750 2381 4750 
Q 2619 4750 2861 4703 
Q 3103 4656 3366 4563 
z
" id="DejaVuSans-36" transform="scale(0.015625)"/>
      <path d="M 1259 2228 
L 1259 519 
L 2272 519 
Q 2781 519 3026 730 
Q 3272 941 3272 1375 
Q 3272 1813 3026 2020 
Q 2781 2228 2272 2228 
L 1259 2228 
z
M 1259 4147 
L 1259 2741 
L 2194 2741 
Q 2656 2741 2882 2914 
Q 3109 3088 3109 3444 
Q 3109 3797 2882 3972 
Q 2656 4147 2194 4147 
L 1259 4147 
z
M 628 4666 
L 2241 4666 
Q 2963 4666 3353 4366 
Q 3744 4066 3744 3513 
Q 3744 3084 3544 2831 
Q 3344 2578 2956 2516 
Q 3422 2416 3680 2098 
Q 3938 1781 3938 1306 
Q 3938 681 3513 340 
Q 3088 0 2303 0 
L 628 0 
L 628 4666 
z
" id="DejaVuSans-42" transform="scale(0.015625)"/>
     </defs>
     <use xlink:href="#DejaVuSans-2f"/>
     <use x="33.691406" xlink:href="#DejaVuSans-70"/>
     <use x="97.167969" xlink:href="#DejaVuSans-61"/>
     <use x="158.447266" xlink:href="#DejaVuSans-63"/>
     <use x="213.427734" xlink:href="#DejaVuSans-6b"/>
     <use x="271.337891" xlink:href="#DejaVuSans-41"/>
     <use x="339.746094" xlink:href="#DejaVuSans-36"/>
     <use x="403.369141" xlink:href="#DejaVuSans-70"/>
     <use x="466.845703" xlink:href="#DejaVuSans-61"/>
     <use x="528.125" xlink:href="#DejaVuSans-63"/>
     <use x="583.105469" xlink:href="#DejaVuSans-6b"/>
     <use x="641.015625" xlink:href="#DejaVuSans-42"/>
     <use x="709.619141" xlink:href="#DejaVuSans-32"/>
     <use x="773.242188" xlink:href="#DejaVuSans-2f"/>
    </g>
   </g>
   <g id="legend_1">
    <g id="patch_7">
     <path d="M 1393.146875 244.29 
L 1548.2 244.29 
Q 1550.2 244.29 1550.2 242.29 
L 1550.2 123.64 
Q 1550.2 121.64 1548.2 121.64 
L 1393.146875 121.64 
Q 1391.146875 121.64 1391.146875 123.64 
L 1391.146875 242.29 
Q 1391.146875 244.29 1393.146875 244.29 
z
" style="fill:#ffffff;opacity:0.8;stroke:#cccccc;stroke-linejoin:miter;"/>
    </g>
    <g id="line2d_23">
     <path d="M 1395.146875 129.738437 
L 1415.146875 129.738437 
" style="fill:none;stroke:#ff0029;stroke-linecap:square;stroke-width:1.5;"/>
    </g>
    <g id="line2d_24"/>
    <g id="text_18">
     <!-- MC256_KC1024_NC1024 -->
     <g transform="translate(1423.146875 133.238437)scale(0.1 -0.1)">
      <defs>
       <path d="M 628 4666 
L 1569 4666 
L 2759 1491 
L 3956 4666 
L 4897 4666 
L 4897 0 
L 4281 0 
L 4281 4097 
L 3078 897 
L 2444 897 
L 1241 4097 
L 1241 0 
L 628 0 
L 628 4666 
z
" id="DejaVuSans-4d" transform="scale(0.015625)"/>
       <path d="M 4122 4306 
L 4122 3641 
Q 3803 3938 3442 4084 
Q 3081 4231 2675 4231 
Q 1875 4231 1450 3742 
Q 1025 3253 1025 2328 
Q 1025 1406 1450 917 
Q 1875 428 2675 428 
Q 3081 428 3442 575 
Q 3803 722 4122 1019 
L 4122 359 
Q 3791 134 3420 21 
Q 3050 -91 2638 -91 
Q 1578 -91 968 557 
Q 359 1206 359 2328 
Q 359 3453 968 4101 
Q 1578 4750 2638 4750 
Q 3056 4750 3426 4639 
Q 3797 4528 4122 4306 
z
" id="DejaVuSans-43" transform="scale(0.015625)"/>
       <path d="M 3263 -1063 
L 3263 -1509 
L -63 -1509 
L -63 -1063 
L 3263 -1063 
z
" id="DejaVuSans-5f" transform="scale(0.015625)"/>
       <path d="M 628 4666 
L 1259 4666 
L 1259 2694 
L 3353 4666 
L 4166 4666 
L 1850 2491 
L 4331 0 
L 3500 0 
L 1259 2247 
L 1259 0 
L 628 0 
L 628 4666 
z
" id="DejaVuSans-4b" transform="scale(0.015625)"/>
       <path d="M 628 4666 
L 1478 4666 
L 3547 763 
L 3547 4666 
L 4159 4666 
L 4159 0 
L 3309 0 
L 1241 3903 
L 1241 0 
L 628 0 
L 628 4666 
z
" id="DejaVuSans-4e" transform="scale(0.015625)"/>
      </defs>
      <use xlink:href="#DejaVuSans-4d"/>
      <use x="86.279297" xlink:href="#DejaVuSans-43"/>
      <use x="156.103516" xlink:href="#DejaVuSans-32"/>
      <use x="219.726562" xlink:href="#DejaVuSans-35"/>
      <use x="283.349609" xlink:href="#DejaVuSans-36"/>
      <use x="346.972656" xlink:href="#DejaVuSans-5f"/>
      <use x="396.972656" xlink:href="#DejaVuSans-4b"/>
      <use x="457.048828" xlink:href="#DejaVuSans-43"/>
      <use x="526.873047" xlink:href="#DejaVuSans-31"/>
      <use x="590.496094" xlink:href="#DejaVuSans-30"/>
      <use x="654.119141" xlink:href="#DejaVuSans-32"/>
      <use x="717.742188" xlink:href="#DejaVuSans-34"/>
      <use x="781.365234" xlink:href="#DejaVuSans-5f"/>
      <use x="831.365234" xlink:href="#DejaVuSans-4e"/>
      <use x="906.169922" xlink:href="#DejaVuSans-43"/>
      <use x="975.994141" xlink:href="#DejaVuSans-31"/>
      <use x="1039.617188" xlink:href="#DejaVuSans-30"/>
      <use x="1103.240234" xlink:href="#DejaVuSans-32"/>
      <use x="1166.863281" xlink:href="#DejaVuSans-34"/>
     </g>
    </g>
    <g id="line2d_25">
     <path d="M 1395.146875 144.694687 
L 1415.146875 144.694687 
" style="fill:none;stroke:#ff9900;stroke-linecap:square;stroke-width:1.5;"/>
    </g>
    <g id="line2d_26"/>
    <g id="text_19">
     <!-- MC408_KC1280_NC1632 -->
     <g transform="translate(1423.146875 148.194687)scale(0.1 -0.1)">
      <defs>
       <path d="M 2034 2216 
Q 1584 2216 1326 1975 
Q 1069 1734 1069 1313 
Q 1069 891 1326 650 
Q 1584 409 2034 409 
Q 2484 409 2743 651 
Q 3003 894 3003 1313 
Q 3003 1734 2745 1975 
Q 2488 2216 2034 2216 
z
M 1403 2484 
Q 997 2584 770 2862 
Q 544 3141 544 3541 
Q 544 4100 942 4425 
Q 1341 4750 2034 4750 
Q 2731 4750 3128 4425 
Q 3525 4100 3525 3541 
Q 3525 3141 3298 2862 
Q 3072 2584 2669 2484 
Q 3125 2378 3379 2068 
Q 3634 1759 3634 1313 
Q 3634 634 3220 271 
Q 2806 -91 2034 -91 
Q 1263 -91 848 271 
Q 434 634 434 1313 
Q 434 1759 690 2068 
Q 947 2378 1403 2484 
z
M 1172 3481 
Q 1172 3119 1398 2916 
Q 1625 2713 2034 2713 
Q 2441 2713 2670 2916 
Q 2900 3119 2900 3481 
Q 2900 3844 2670 4047 
Q 2441 4250 2034 4250 
Q 1625 4250 1398 4047 
Q 1172 3844 1172 3481 
z
" id="DejaVuSans-38" transform="scale(0.015625)"/>
      </defs>
      <use xlink:href="#DejaVuSans-4d"/>
      <use x="86.279297" xlink:href="#DejaVuSans-43"/>
      <use x="156.103516" xlink:href="#DejaVuSans-34"/>
      <use x="219.726562" xlink:href="#DejaVuSans-30"/>
      <use x="283.349609" xlink:href="#DejaVuSans-38"/>
      <use x="346.972656" xlink:href="#DejaVuSans-5f"/>
      <use x="396.972656" xlink:href="#DejaVuSans-4b"/>
      <use x="457.048828" xlink:href="#DejaVuSans-43"/>
      <use x="526.873047" xlink:href="#DejaVuSans-31"/>
      <use x="590.496094" xlink:href="#DejaVuSans-32"/>
      <use x="654.119141" xlink:href="#DejaVuSans-38"/>
      <use x="717.742188" xlink:href="#DejaVuSans-30"/>
      <use x="781.365234" xlink:href="#DejaVuSans-5f"/>
      <use x="831.365234" xlink:href="#DejaVuSans-4e"/>
      <use x="906.169922" xlink:href="#DejaVuSans-43"/>
      <use x="975.994141" xlink:href="#DejaVuSans-31"/>
      <use x="1039.617188" xlink:href="#DejaVuSans-36"/>
      <use x="1103.240234" xlink:href="#DejaVuSans-33"/>
      <use x="1166.863281" xlink:href="#DejaVuSans-32"/>
     </g>
    </g>
    <g id="line2d_27">
     <path d="M 1395.146875 159.650937 
L 1415.146875 159.650937 
" style="fill:none;stroke:#9dff00;stroke-linecap:square;stroke-width:1.5;"/>
    </g>
    <g id="line2d_28"/>
    <g id="text_20">
     <!-- MC512_KC1536_NC2048 -->
     <g transform="translate(1423.146875 163.150937)scale(0.1 -0.1)">
      <use xlink:href="#DejaVuSans-4d"/>
      <use x="86.279297" xlink:href="#DejaVuSans-43"/>
      <use x="156.103516" xlink:href="#DejaVuSans-35"/>
      <use x="219.726562" xlink:href="#DejaVuSans-31"/>
      <use x="283.349609" xlink:href="#DejaVuSans-32"/>
      <use x="346.972656" xlink:href="#DejaVuSans-5f"/>
      <use x="396.972656" xlink:href="#DejaVuSans-4b"/>
      <use x="457.048828" xlink:href="#DejaVuSans-43"/>
      <use x="526.873047" xlink:href="#DejaVuSans-31"/>
      <use x="590.496094" xlink:href="#DejaVuSans-35"/>
      <use x="654.119141" xlink:href="#DejaVuSans-33"/>
      <use x="717.742188" xlink:href="#DejaVuSans-36"/>
      <use x="781.365234" xlink:href="#DejaVuSans-5f"/>
      <use x="831.365234" xlink:href="#DejaVuSans-4e"/>
      <use x="906.169922" xlink:href="#DejaVuSans-43"/>
      <use x="975.994141" xlink:href="#DejaVuSans-32"/>
      <use x="1039.617188" xlink:href="#DejaVuSans-30"/>
      <use x="1103.240234" xlink:href="#DejaVuSans-34"/>
      <use x="1166.863281" xlink:href="#DejaVuSans-38"/>
     </g>
    </g>
    <g id="line2d_29">
     <path d="M 1395.146875 174.607187 
L 1415.146875 174.607187 
" style="fill:none;stroke:#00ff26;stroke-linecap:square;stroke-width:1.5;"/>
    </g>
    <g id="line2d_30"/>
    <g id="text_21">
     <!-- MC584_KC1792_NC2336 -->
     <g transform="translate(1423.146875 178.107187)scale(0.1 -0.1)">
      <defs>
       <path d="M 525 4666 
L 3525 4666 
L 3525 4397 
L 1831 0 
L 1172 0 
L 2766 4134 
L 525 4134 
L 525 4666 
z
" id="DejaVuSans-37" transform="scale(0.015625)"/>
       <path d="M 703 97 
L 703 672 
Q 941 559 1184 500 
Q 1428 441 1663 441 
Q 2288 441 2617 861 
Q 2947 1281 2994 2138 
Q 2813 1869 2534 1725 
Q 2256 1581 1919 1581 
Q 1219 1581 811 2004 
Q 403 2428 403 3163 
Q 403 3881 828 4315 
Q 1253 4750 1959 4750 
Q 2769 4750 3195 4129 
Q 3622 3509 3622 2328 
Q 3622 1225 3098 567 
Q 2575 -91 1691 -91 
Q 1453 -91 1209 -44 
Q 966 3 703 97 
z
M 1959 2075 
Q 2384 2075 2632 2365 
Q 2881 2656 2881 3163 
Q 2881 3666 2632 3958 
Q 2384 4250 1959 4250 
Q 1534 4250 1286 3958 
Q 1038 3666 1038 3163 
Q 1038 2656 1286 2365 
Q 1534 2075 1959 2075 
z
" id="DejaVuSans-39" transform="scale(0.015625)"/>
      </defs>
      <use xlink:href="#DejaVuSans-4d"/>
      <use x="86.279297" xlink:href="#DejaVuSans-43"/>
      <use x="156.103516" xlink:href="#DejaVuSans-35"/>
      <use x="219.726562" xlink:href="#DejaVuSans-38"/>
      <use x="283.349609" xlink:href="#DejaVuSans-34"/>
      <use x="346.972656" xlink:href="#DejaVuSans-5f"/>
      <use x="396.972656" xlink:href="#DejaVuSans-4b"/>
      <use x="457.048828" xlink:href="#DejaVuSans-43"/>
      <use x="526.873047" xlink:href="#DejaVuSans-31"/>
      <use x="590.496094" xlink:href="#DejaVuSans-37"/>
      <use x="654.119141" xlink:href="#DejaVuSans-39"/>
      <use x="717.742188" xlink:href="#DejaVuSans-32"/>
      <use x="781.365234" xlink:href="#DejaVuSans-5f"/>
      <use x="831.365234" xlink:href="#DejaVuSans-4e"/>
      <use x="906.169922" xlink:href="#DejaVuSans-43"/>
      <use x="975.994141" xlink:href="#DejaVuSans-32"/>
      <use x="1039.617188" xlink:href="#DejaVuSans-33"/>
      <use x="1103.240234" xlink:href="#DejaVuSans-33"/>
      <use x="1166.863281" xlink:href="#DejaVuSans-36"/>
     </g>
    </g>
    <g id="line2d_31">
     <path d="M 1395.146875 189.563437 
L 1415.146875 189.563437 
" style="fill:none;stroke:#00ffed;stroke-linecap:square;stroke-width:1.5;"/>
    </g>
    <g id="line2d_32"/>
    <g id="text_22">
     <!-- MC640_KC2048_NC2560 -->
     <g transform="translate(1423.146875 193.063437)scale(0.1 -0.1)">
      <use xlink:href="#DejaVuSans-4d"/>
      <use x="86.279297" xlink:href="#DejaVuSans-43"/>
      <use x="156.103516" xlink:href="#DejaVuSans-36"/>
      <use x="219.726562" xlink:href="#DejaVuSans-34"/>
      <use x="283.349609" xlink:href="#DejaVuSans-30"/>
      <use x="346.972656" xlink:href="#DejaVuSans-5f"/>
      <use x="396.972656" xlink:href="#DejaVuSans-4b"/>
      <use x="457.048828" xlink:href="#DejaVuSans-43"/>
      <use x="526.873047" xlink:href="#DejaVuSans-32"/>
      <use x="590.496094" xlink:href="#DejaVuSans-30"/>
      <use x="654.119141" xlink:href="#DejaVuSans-34"/>
      <use x="717.742188" xlink:href="#DejaVuSans-38"/>
      <use x="781.365234" xlink:href="#DejaVuSans-5f"/>
      <use x="831.365234" xlink:href="#DejaVuSans-4e"/>
      <use x="906.169922" xlink:href="#DejaVuSans-43"/>
      <use x="975.994141" xlink:href="#DejaVuSans-32"/>
      <use x="1039.617188" xlink:href="#DejaVuSans-35"/>
      <use x="1103.240234" xlink:href="#DejaVuSans-36"/>
      <use x="1166.863281" xlink:href="#DejaVuSans-30"/>
     </g>
    </g>
    <g id="line2d_33">
     <path d="M 1395.146875 204.519687 
L 1415.146875 204.519687 
" style="fill:none;stroke:#004eff;stroke-linecap:square;stroke-width:1.5;"/>
    </g>
    <g id="line2d_34"/>
    <g id="text_23">
     <!-- MC680_KC2304_NC2720 -->
     <g transform="translate(1423.146875 208.019687)scale(0.1 -0.1)">
      <use xlink:href="#DejaVuSans-4d"/>
      <use x="86.279297" xlink:href="#DejaVuSans-43"/>
      <use x="156.103516" xlink:href="#DejaVuSans-36"/>
      <use x="219.726562" xlink:href="#DejaVuSans-38"/>
      <use x="283.349609" xlink:href="#DejaVuSans-30"/>
      <use x="346.972656" xlink:href="#DejaVuSans-5f"/>
      <use x="396.972656" xlink:href="#DejaVuSans-4b"/>
      <use x="457.048828" xlink:href="#DejaVuSans-43"/>
      <use x="526.873047" xlink:href="#DejaVuSans-32"/>
      <use x="590.496094" xlink:href="#DejaVuSans-33"/>
      <use x="654.119141" xlink:href="#DejaVuSans-30"/>
      <use x="717.742188" xlink:href="#DejaVuSans-34"/>
      <use x="781.365234" xlink:href="#DejaVuSans-5f"/>
      <use x="831.365234" xlink:href="#DejaVuSans-4e"/>
      <use x="906.169922" xlink:href="#DejaVuSans-43"/>
      <use x="975.994141" xlink:href="#DejaVuSans-32"/>
      <use x="1039.617188" xlink:href="#DejaVuSans-37"/>
      <use x="1103.240234" xlink:href="#DejaVuSans-32"/>
      <use x="1166.863281" xlink:href="#DejaVuSans-30"/>
     </g>
    </g>
    <g id="line2d_35">
     <path d="M 1395.146875 219.475937 
L 1415.146875 219.475937 
" style="fill:none;stroke:#7b00ff;stroke-linecap:square;stroke-width:1.5;"/>
    </g>
    <g id="line2d_36"/>
    <g id="text_24">
     <!-- MC712_KC2560_NC2864 -->
     <g transform="translate(1423.146875 222.975937)scale(0.1 -0.1)">
      <use xlink:href="#DejaVuSans-4d"/>
      <use x="86.279297" xlink:href="#DejaVuSans-43"/>
      <use x="156.103516" xlink:href="#DejaVuSans-37"/>
      <use x="219.726562" xlink:href="#DejaVuSans-31"/>
      <use x="283.349609" xlink:href="#DejaVuSans-32"/>
      <use x="346.972656" xlink:href="#DejaVuSans-5f"/>
      <use x="396.972656" xlink:href="#DejaVuSans-4b"/>
      <use x="457.048828" xlink:href="#DejaVuSans-43"/>
      <use x="526.873047" xlink:href="#DejaVuSans-32"/>
      <use x="590.496094" xlink:href="#DejaVuSans-35"/>
      <use x="654.119141" xlink:href="#DejaVuSans-36"/>
      <use x="717.742188" xlink:href="#DejaVuSans-30"/>
      <use x="781.365234" xlink:href="#DejaVuSans-5f"/>
      <use x="831.365234" xlink:href="#DejaVuSans-4e"/>
      <use x="906.169922" xlink:href="#DejaVuSans-43"/>
      <use x="975.994141" xlink:href="#DejaVuSans-32"/>
      <use x="1039.617188" xlink:href="#DejaVuSans-38"/>
      <use x="1103.240234" xlink:href="#DejaVuSans-36"/>
      <use x="1166.863281" xlink:href="#DejaVuSans-34"/>
     </g>
    </g>
    <g id="line2d_37">
     <path d="M 1395.146875 234.432187 
L 1415.146875 234.432187 
" style="fill:none;stroke:#ff00bf;stroke-linecap:square;stroke-width:1.5;"/>
    </g>
    <g id="line2d_38"/>
    <g id="text_25">
     <!-- MC744_KC2816_NC2976 -->
     <g transform="translate(1423.146875 237.932187)scale(0.1 -0.1)">
      <use xlink:href="#DejaVuSans-4d"/>
      <use x="86.279297" xlink:href="#DejaVuSans-43"/>
      <use x="156.103516" xlink:href="#DejaVuSans-37"/>
      <use x="219.726562" xlink:href="#DejaVuSans-34"/>
      <use x="283.349609" xlink:href="#DejaVuSans-34"/>
      <use x="346.972656" xlink:href="#DejaVuSans-5f"/>
      <use x="396.972656" xlink:href="#DejaVuSans-4b"/>
      <use x="457.048828" xlink:href="#DejaVuSans-43"/>
      <use x="526.873047" xlink:href="#DejaVuSans-32"/>
      <use x="590.496094" xlink:href="#DejaVuSans-38"/>
      <use x="654.119141" xlink:href="#DejaVuSans-31"/>
      <use x="717.742188" xlink:href="#DejaVuSans-36"/>
      <use x="781.365234" xlink:href="#DejaVuSans-5f"/>
      <use x="831.365234" xlink:href="#DejaVuSans-4e"/>
      <use x="906.169922" xlink:href="#DejaVuSans-43"/>
      <use x="975.994141" xlink:href="#DejaVuSans-32"/>
      <use x="1039.617188" xlink:href="#DejaVuSans-39"/>
      <use x="1103.240234" xlink:href="#DejaVuSans-37"/>
      <use x="1166.863281" xlink:href="#DejaVuSans-36"/>
     </g>
    </g>
   </g>
  </g>
 </g>
 <defs>
  <clipPath id="pc1d2839cef">
   <rect height="748.44" width="1339.2" x="216" y="116.64"/>
  </clipPath>
 </defs>
</svg>
